<?xml version="1.0" encoding="UTF-8"?>
<!DOCTYPE svg PUBLIC "-//W3C//DTD SVG 1.1//EN" "http://www.w3.org/Graphics/SVG/1.1/DTD/svg11.dtd">
<svg version="1.1" xmlns="http://www.w3.org/2000/svg" xmlns:xlink="http://www.w3.org/1999/xlink" x="0" y="0" width="80" height="80" viewBox="0, 0, 80, 80">
  <g id="Layer_1" transform="translate(-871, -30)">
    <g id="froghead_round">
      <path d="M910.512,108.537 C932.03,108.537 949.536,91.031 949.536,69.512 C949.536,47.994 932.03,30.488 910.512,30.488 C888.994,30.488 871.488,47.994 871.488,69.512 C871.488,91.031 888.994,108.537 910.512,108.537" fill="#121211"/>
      <path d="M911,30 C933.057,30 951,47.943 951,70 C951,92.057 933.057,110 911,110 C888.943,110 871,92.057 871,70 C871,47.943 888.943,30 911,30 z M911,31.951 C890.02,31.951 872.951,49.021 872.951,70 C872.951,90.979 890.02,108.049 911,108.049 C931.979,108.049 949.049,90.979 949.049,70 C949.049,49.021 931.979,31.951 911,31.951 z" fill="#FFFFFD"/>
      <path d="M910.512,103.164 C929.068,103.164 944.164,88.068 944.164,69.512 C944.164,50.957 929.068,35.861 910.512,35.861 C891.956,35.861 876.861,50.957 876.861,69.512 C876.861,88.068 891.956,103.164 910.512,103.164" fill="#121211"/>
      <path d="M911,35.861 C929.825,35.861 945.139,51.175 945.139,70 C945.139,88.825 929.825,104.139 911,104.139 C892.175,104.139 876.861,88.825 876.861,70 C876.861,51.175 892.175,35.861 911,35.861 z M911,36.836 C892.714,36.836 877.836,51.714 877.836,70 C877.836,88.286 892.714,103.164 911,103.164 C929.286,103.164 944.164,88.286 944.164,70 C944.164,51.714 929.286,36.836 911,36.836 z" fill="#FFFFFD"/>
      <path d="M887.486,55.176 C887.486,53.438 888.355,50.413 892.265,49.093 C896.175,47.773 897.479,47.812 898.347,48.888 C899.216,49.962 904.43,55.215 904.43,55.215 C904.43,55.215 907.037,58.217 909.208,58.651 C911.38,59.085 912.685,58.651 914.421,57.348 C916.16,56.044 917.464,53.739 917.898,53.371 C918.332,53.003 921.808,48.659 924.414,48.659 C927.021,48.659 929.193,48.224 931.365,51.265 C933.538,54.306 933.972,57.782 932.669,59.955 C931.365,62.126 931.801,62.126 931.801,62.126 C931.801,62.126 936.145,62.126 937.883,65.168 C939.62,68.209 940.054,73.857 938.317,76.464 C936.579,79.07 934.842,80.808 934.842,80.808 L929.628,83.849 C929.628,83.849 917.464,90.801 911.38,90.801 C905.298,90.801 906.167,90.366 904.864,89.932 C903.561,89.497 897.479,86.891 897.479,86.891 L887.486,81.678 C887.486,81.678 883.576,78.635 882.708,76.898 C881.838,75.16 880.97,69.077 881.838,67.34 C882.708,65.602 884.879,63.864 886.617,62.996 C888.355,62.126 889.212,62.075 888.79,60.389 C888.355,58.651 887.486,56.913 887.486,55.176" fill="#FFFFFD"/>
      <path d="M887.328,81.816 C895.039,86.442 904.729,91.21 910.673,91.252 L910.673,91.243 C913.029,91.17 915.364,90.498 917.576,89.731 C923.249,87.769 928.537,84.841 933.697,81.816 C941.193,77.318 940.312,68.857 939.157,66.127 C937.951,63.49 935.239,61.754 932.567,60.818 C934.491,58.451 934.057,55.393 933.219,52.677 C932.089,49.155 924.995,44.87 920.069,50.494 C916.603,54.448 916.77,55.285 913.885,57.346 C911.604,58.877 909.419,58.933 907.14,57.346 C904.252,55.285 904.418,54.447 900.955,50.494 C896.028,44.871 888.934,49.155 887.803,52.677 C886.967,55.393 886.533,58.451 888.455,60.818 C885.785,61.753 883.072,63.489 881.866,66.127 C880.714,68.857 879.832,77.318 887.328,81.816 z M911.967,90.469 C914.531,89.64 916.931,88.537 919.186,87.062 C922.654,84.495 924.54,81.225 929.787,72.178 C930.339,71.117 931.043,70.61 932.167,70.32 C931.496,70.605 930.965,71.113 930.528,71.687 C929.834,72.596 929.42,73.704 928.942,74.718 C928.157,76.377 927.435,77.955 926.559,79.553 C925.013,82.381 923.158,85.063 920.633,87.104 C919.981,87.632 919.282,88.13 918.535,88.515 C916.996,89.309 915.353,89.732 913.683,90.141 L912.027,90.462 L911.967,90.469 z M907.34,90.141 C905.67,89.732 904.028,89.309 902.488,88.515 C901.741,88.13 901.042,87.632 900.391,87.104 C897.865,85.063 896.011,82.381 894.462,79.553 C893.587,77.955 892.866,76.377 892.082,74.718 C891.602,73.704 891.185,72.596 890.494,71.688 C890.057,71.113 889.527,70.605 888.854,70.32 C889.981,70.61 890.685,71.117 891.236,72.178 C896.483,81.225 898.369,84.495 901.837,87.062 C904.091,88.537 906.493,89.64 909.054,90.469 L908.996,90.462 L907.34,90.141 z M908.207,88.437 C908.207,88.437 905.572,87.373 904.027,85.879 C902.479,84.386 901.457,82.898 901.457,82.898 C901.457,82.898 902.899,84.368 904.462,84.547 C903.344,83.782 902.315,82.84 901.485,81.77 C900.88,80.983 900.32,79.893 900.615,78.872 C900.779,78.305 901.168,77.863 901.628,77.511 C902.585,76.793 904.389,76.517 905.656,78.817 C906.923,81.119 906.37,83.369 905.71,84.011 C905.049,84.653 904.953,85.866 905.83,86.625 C906.711,87.384 908.207,88.437 908.207,88.437 z M923.192,85.994 C924.234,85.337 925.344,84.805 926.441,84.247 C929.099,82.896 931.929,81.556 934.003,79.347 C934.714,78.59 935.246,77.731 935.626,76.767 C936.198,75.313 936.196,72.935 935.024,71.777 C934.419,71.179 933.576,71.029 932.764,71.008 C933.214,70.722 933.745,70.685 934.262,70.659 C934.893,70.698 935.426,71.006 935.891,71.412 C936.534,72.095 939.341,76.134 932.892,80.797 C931.022,82.131 929.069,83.34 927.034,84.407 C926.318,84.78 925.576,85.09 924.835,85.406 C923.398,85.935 923.95,85.756 923.192,85.994 z M896.188,85.406 C895.448,85.091 894.705,84.782 893.989,84.407 C891.953,83.342 890,82.132 888.131,80.798 C881.68,76.136 884.488,72.097 885.132,71.413 C885.597,71.006 886.131,70.699 886.763,70.66 C887.279,70.685 887.811,70.723 888.259,71.009 C887.448,71.03 886.604,71.18 885.999,71.778 C884.828,72.936 884.826,75.315 885.398,76.768 C885.776,77.732 886.311,78.59 887.02,79.348 C889.096,81.557 891.926,82.897 894.583,84.248 C895.677,84.805 896.789,85.338 897.829,85.995 L897.527,85.9 L896.188,85.406 z M912.817,88.437 C912.817,88.437 914.313,87.384 915.191,86.625 C916.069,85.866 915.973,84.653 915.313,84.011 C914.653,83.368 914.099,81.119 915.366,78.817 C916.634,76.517 918.438,76.793 919.394,77.511 C919.854,77.863 920.242,78.305 920.407,78.872 C920.703,79.893 920.143,80.983 919.535,81.769 C918.708,82.84 917.679,83.782 916.56,84.547 C918.122,84.368 919.565,82.898 919.565,82.898 C919.565,82.898 918.542,84.386 916.996,85.878 C915.452,87.373 912.817,88.437 912.817,88.437 z M895.604,83.709 C894.317,83.128 893.895,82.961 892.537,82.216 C891.757,81.789 891.031,81.284 890.31,80.765 C888.882,79.736 887.377,78.678 886.544,77.077 L886.539,77.065 L886.577,77.104 C886.454,76.916 886.386,76.744 886.321,76.529 C886.133,75.92 886.04,75.541 886.67,75.101 C888.047,77.595 891.128,80.316 892.843,81.387 C893.773,81.929 894.727,82.438 895.701,82.903 C895.959,83.302 896.22,83.696 896.515,84.071 L896.209,83.952 L895.604,83.709 z M915.92,84.064 C915.92,84.064 915.444,83.391 915.63,82.604 C916.787,82.273 918.061,81.864 918.73,80.775 C918.933,80.445 918.991,80.071 919.001,79.693 C918.973,78.016 917.098,78.283 916.127,79.559 C915.535,80.409 915.089,81.321 915.066,82.374 C915.06,82.618 915.106,82.962 915.21,83.202 C915.342,83.494 915.542,83.713 915.761,83.938 L915.92,84.064 z M905.265,83.94 C905.484,83.713 905.685,83.495 905.814,83.203 C905.92,82.964 905.966,82.618 905.959,82.375 C905.937,81.321 905.488,80.41 904.899,79.56 C903.927,78.284 902.054,78.016 902.025,79.694 C902.035,80.072 902.092,80.447 902.296,80.777 C902.965,81.865 904.239,82.274 905.397,82.605 C905.58,83.393 905.105,84.066 905.105,84.066 L905.265,83.94 z M925.921,81.976 C926.763,80.495 927.557,78.989 928.257,77.436 C928.685,76.487 929.081,75.525 929.587,74.614 C930.033,73.811 930.487,72.943 931.225,72.363 C931.802,71.909 932.248,71.635 932.955,71.53 C933.095,71.536 933.289,71.539 933.417,71.564 C933.606,71.599 933.806,71.791 933.928,71.92 C934.295,72.305 934.508,72.653 934.407,73.2 C934.264,73.976 933.764,74.634 933.327,75.266 C931.877,77.318 930.461,79.139 928.666,80.368 C927.524,81.112 928.103,80.752 926.932,81.449 C926.214,81.842 926.555,81.663 925.911,81.992 L925.921,81.976 z M894.093,81.451 C892.924,80.753 893.502,81.113 892.361,80.37 C890.564,79.14 889.149,77.318 887.699,75.268 C887.261,74.636 886.763,73.977 886.619,73.201 C886.517,72.653 886.732,72.306 887.097,71.922 C887.221,71.792 887.421,71.6 887.61,71.565 C887.737,71.54 887.93,71.537 888.071,71.531 C888.778,71.637 889.225,71.91 889.802,72.364 C890.536,72.944 890.992,73.812 891.438,74.616 C891.946,75.528 892.341,76.49 892.77,77.437 C893.468,78.99 894.263,80.496 895.105,81.977 L895.114,81.994 L894.664,81.764 L894.093,81.451 z M885.413,79.569 C884.508,78.64 883.936,77.934 883.359,76.729 C882.333,74.581 881.843,71.614 882.178,69.246 C882.229,68.888 882.31,68.532 882.39,68.18 C882.873,66.114 884.697,63.84 886.714,63.062 C887.315,62.831 887.954,62.752 888.593,62.719 C888.807,62.72 889.022,62.716 889.236,62.723 C889.418,62.731 889.598,62.768 889.779,62.788 C890.587,62.885 891.377,63.061 892.145,63.336 C894.905,64.323 897.385,65.901 899.648,67.748 C896.657,65.354 889.735,62.432 885.458,66.019 C884.645,66.785 883.957,67.629 883.527,68.67 C882.756,70.54 882.839,72.68 883.299,74.617 C883.36,74.877 883.526,75.416 883.599,75.674 C883.826,76.467 884.047,77.265 884.484,77.975 C885.169,79.092 886.005,80.1 887.045,80.909 L886.37,80.389 L885.413,79.569 z M924.508,84.071 C924.802,83.696 925.064,83.301 925.322,82.903 C926.297,82.438 927.248,81.929 928.182,81.387 C929.895,80.316 932.977,77.595 934.353,75.101 C934.983,75.541 934.889,75.92 934.703,76.529 C934.639,76.744 934.57,76.917 934.446,77.104 L934.484,77.065 L934.479,77.077 C933.647,78.679 932.142,79.736 930.714,80.765 C929.993,81.284 929.268,81.788 928.488,82.216 C927.129,82.961 926.705,83.128 925.419,83.709 C924.712,83.993 925.018,83.875 924.508,84.071 z M933.979,80.907 C935.019,80.099 935.854,79.091 936.54,77.974 C936.976,77.263 937.197,76.466 937.425,75.672 C937.498,75.415 937.665,74.876 937.725,74.615 C938.185,72.678 938.268,70.538 937.497,68.669 C937.067,67.628 936.379,66.783 935.566,66.018 C931.289,62.431 924.366,65.354 921.375,67.747 C923.64,65.9 926.12,64.319 928.878,63.335 C929.647,63.06 930.437,62.884 931.245,62.787 C931.426,62.766 931.606,62.728 931.787,62.722 C932.002,62.715 932.216,62.719 932.431,62.717 C933.07,62.75 933.708,62.829 934.309,63.061 C936.328,63.838 938.151,66.112 938.632,68.178 C938.714,68.531 938.795,68.887 938.846,69.245 C939.181,71.612 938.691,74.579 937.665,76.727 C937.088,77.932 936.515,78.638 935.608,79.568 C934.438,80.573 934.985,80.133 933.979,80.907 z M927.076,63.237 C925.357,63.474 923.933,62.983 922.564,61.921 C923.287,62.113 924.034,62.163 924.779,62.214 C926.043,62.241 926.956,62.093 928.127,61.616 C930.645,60.451 931.605,56.587 931.187,54.883 C930.884,53.717 930.404,52.891 929.553,52.04 C929.44,51.927 929.305,51.838 929.182,51.736 C929.358,51.696 929.542,51.707 929.724,51.697 C931.118,51.796 931.903,52.51 932.366,53.802 C932.679,54.75 934.125,59.838 930.11,62.112 C929.356,62.569 928.532,62.866 927.693,63.116 L927.076,63.237 z M898.461,61.921 C897.093,62.983 895.668,63.474 893.949,63.237 L893.333,63.115 C892.491,62.866 891.67,62.568 890.915,62.112 C886.898,59.837 888.346,54.749 888.659,53.8 C889.121,52.509 889.907,51.795 891.302,51.696 C891.483,51.705 891.666,51.695 891.844,51.735 C891.72,51.836 891.584,51.926 891.473,52.039 C890.621,52.89 890.143,53.716 889.839,54.882 C889.42,56.586 890.38,60.45 892.899,61.615 C894.068,62.093 894.982,62.24 896.248,62.212 C896.992,62.163 897.737,62.113 898.461,61.921 z M902.867,68.933 C902.716,68.349 902.923,69.198 902.731,67.786 C902.532,66.325 902.383,65.464 901.972,64.047 C901.261,61.594 900.162,59.263 898.839,57.084 C897.083,54.191 894.535,50.616 890.717,50.805 C891.818,49.655 893.3,48.875 894.908,48.834 C898.581,48.781 900.312,50.735 903.906,55.094 C905.559,57.038 907.767,58.966 910.449,59.072 L910.512,59.071 L910.573,59.072 C913.251,58.984 915.475,57.028 917.118,55.094 C920.711,50.735 922.443,48.781 926.115,48.834 C927.725,48.875 929.206,49.655 930.305,50.805 C926.487,50.616 923.941,54.191 922.186,57.084 C920.864,59.264 919.763,61.595 919.053,64.047 C918.642,65.466 918.492,66.325 918.294,67.786 C918.102,69.198 918.306,68.349 918.159,68.933 C918.029,67.262 918.811,60.614 920.471,57.667 C922.701,53.712 924.538,52.882 924.538,52.882 C924.538,52.882 923.095,52.58 919.829,56.113 C919.829,56.113 922.239,50.919 928.018,49.959 C928.018,49.959 924.455,48.701 920.99,52.701 C919.524,54.372 918.016,56.023 916.296,57.443 C914.682,58.773 912.821,60.02 910.673,60.122 L910.673,60.114 C907.352,60.313 903.497,56.702 900.035,52.701 C896.571,48.7 893.007,49.959 893.007,49.959 C898.787,50.919 901.195,56.113 901.195,56.113 C897.93,52.579 896.487,52.881 896.487,52.881 C896.487,52.881 898.325,53.712 900.554,57.667 C902.211,60.612 902.995,67.262 902.867,68.933" fill="#121211"/>
    </g>
  </g>
</svg>
