<?xml version="1.0" encoding="utf-8"?>
<!-- Generator: Adobe Illustrator 15.0.0, SVG Export Plug-In . SVG Version: 6.00 Build 0)  -->
<!DOCTYPE svg PUBLIC "-//W3C//DTD SVG 1.1//EN" "http://www.w3.org/Graphics/SVG/1.1/DTD/svg11.dtd">
<svg version="1.1" id="Layer_1" xmlns="http://www.w3.org/2000/svg" xmlns:xlink="http://www.w3.org/1999/xlink" x="0px" y="0px"
	 width="90px" height="90px" viewBox="0 0 90 90" enable-background="new 0 0 90 90" xml:space="preserve">
<g id="Layer_1_1_">
	<path fill="#0B0B0A" d="M45,0c24.812,0,45,20.187,45,45c0,24.812-20.188,45-45,45C20.187,90,0,69.812,0,45C0,20.187,20.187,0,45,0z
		"/>
	<path fill="#0B0B0A" d="M45,84.375c21.712,0,39.375-17.663,39.375-39.375C84.375,23.289,66.712,5.625,45,5.625
		S5.625,23.289,5.625,45C5.625,66.712,23.288,84.375,45,84.375"/>
	<path fill="#FFFFFE" d="M45,2.5c23.436,0,42.5,19.065,42.5,42.5c0,23.436-19.064,42.5-42.5,42.5C21.564,87.5,2.5,68.436,2.5,45
		C2.5,21.565,21.565,2.5,45,2.5z M45,5C22.944,5,5,22.943,5,45s17.944,40,40,40c22.057,0,40-17.943,40-40S67.057,5,45,5z"/>
	<path fill="#FFFFFE" d="M18.058,28.225c0-2.034,1.017-5.572,5.591-7.117c4.575-1.545,6.101-1.499,7.116-0.241
		c1.018,1.258,7.118,7.404,7.118,7.404s3.051,3.512,5.592,4.02c2.541,0.509,4.068,0,6.099-1.524c2.033-1.526,3.56-4.223,4.068-4.654
		c0.508-0.43,4.574-5.514,7.623-5.514c3.051,0,5.594-0.508,8.135,3.05c2.541,3.559,3.05,7.626,1.524,10.168
		c-1.524,2.541-1.016,2.541-1.016,2.541s5.084,0,7.116,3.558c2.033,3.559,2.541,10.168,0.509,13.218
		c-2.033,3.05-4.066,5.083-4.066,5.083l-6.101,3.559c0,0-14.233,8.134-21.352,8.134c-7.117,0-6.1-0.509-7.624-1.017
		c-1.526-0.51-8.642-3.559-8.642-3.559l-11.692-6.1c0,0-4.576-3.56-5.592-5.592c-1.017-2.035-2.033-9.151-1.017-11.185
		c1.017-2.033,3.558-4.066,5.591-5.083c2.035-1.017,3.037-1.077,2.543-3.05C19.075,32.291,18.058,30.258,18.058,28.225"/>
	<path fill="#0B0B0A" d="M17.873,59.396c9.022,5.412,20.36,10.992,27.316,11.041v-0.012c2.756-0.085,5.488-0.871,8.077-1.769
		c6.637-2.295,12.825-5.722,18.862-9.261c8.771-5.264,7.74-15.164,6.39-18.357c-1.412-3.085-4.584-5.117-7.711-6.212
		c2.252-2.77,1.743-6.347,0.762-9.525c-1.322-4.122-9.623-9.135-15.385-2.555c-4.057,4.626-3.861,5.606-7.238,8.017
		c-2.668,1.792-5.224,1.857-7.891,0c-3.378-2.411-3.185-3.392-7.236-8.017c-5.765-6.579-14.066-1.567-15.389,2.555
		c-0.979,3.178-1.486,6.755,0.762,9.525c-3.124,1.094-6.298,3.125-7.709,6.212C10.134,44.233,9.102,54.133,17.873,59.396z
		 M46.702,69.521c3-0.971,5.809-2.261,8.446-3.986c4.059-3.004,6.266-6.831,12.404-17.416c0.646-1.241,1.471-1.835,2.785-2.174
		c-0.785,0.334-1.406,0.928-1.917,1.599c-0.812,1.063-1.297,2.361-1.856,3.548c-0.918,1.94-1.764,3.787-2.789,5.657
		c-1.809,3.31-3.979,6.447-6.934,8.835c-0.763,0.618-1.581,1.2-2.453,1.65c-1.802,0.93-3.725,1.425-5.678,1.903l-1.939,0.374
		L46.702,69.521z M41.288,69.138c-1.954-0.479-3.875-0.974-5.676-1.903c-0.875-0.45-1.693-1.032-2.455-1.65
		c-2.955-2.388-5.124-5.525-6.937-8.835c-1.024-1.87-1.868-3.717-2.784-5.657c-0.563-1.187-1.05-2.484-1.859-3.546
		c-0.512-0.673-1.132-1.267-1.919-1.601c1.319,0.339,2.143,0.933,2.788,2.174c6.139,10.585,8.345,14.412,12.404,17.416
		c2.637,1.726,5.447,3.016,8.444,3.986l-0.068-0.009L41.288,69.138z M42.303,67.145c0,0-3.083-1.246-4.891-2.994
		c-1.811-1.748-3.007-3.488-3.007-3.488s1.687,1.72,3.516,1.93c-1.308-0.896-2.513-1.997-3.483-3.25
		c-0.709-0.921-1.364-2.195-1.019-3.39c0.193-0.664,0.648-1.181,1.185-1.593c1.121-0.84,3.232-1.163,4.714,1.527
		c1.482,2.694,0.835,5.326,0.064,6.077c-0.775,0.751-0.887,2.171,0.139,3.06C40.552,65.912,42.303,67.145,42.303,67.145z
		 M59.837,64.284c1.22-0.767,2.519-1.39,3.802-2.043c3.109-1.581,6.42-3.149,8.848-5.734c0.832-0.885,1.453-1.89,1.898-3.018
		c0.67-1.702,0.667-4.485-0.703-5.839c-0.709-0.7-1.695-0.875-2.646-0.9c0.526-0.334,1.147-0.378,1.753-0.408
		c0.738,0.046,1.361,0.406,1.906,0.881c0.753,0.799,4.037,5.525-3.51,10.981c-2.188,1.562-4.473,2.976-6.854,4.224
		c-0.838,0.438-1.706,0.799-2.573,1.17C60.077,64.216,60.725,64.007,59.837,64.284z M28.24,63.598
		c-0.866-0.369-1.736-0.731-2.573-1.17c-2.382-1.246-4.668-2.66-6.854-4.222c-7.548-5.455-4.263-10.183-3.51-10.981
		c0.544-0.477,1.169-0.837,1.908-0.882c0.604,0.029,1.226,0.074,1.751,0.408c-0.949,0.024-1.937,0.201-2.644,0.899
		c-1.37,1.355-1.373,4.14-0.703,5.84c0.442,1.128,1.067,2.132,1.897,3.019c2.429,2.584,5.74,4.152,8.85,5.733
		c1.28,0.65,2.581,1.275,3.797,2.044l-0.352-0.111L28.24,63.598z M47.697,67.145c0,0,1.751-1.232,2.777-2.121
		c1.028-0.889,0.916-2.308,0.143-3.06c-0.771-0.752-1.42-3.383,0.062-6.077c1.483-2.69,3.594-2.367,4.713-1.527
		c0.539,0.412,0.991,0.929,1.186,1.593c0.346,1.194-0.309,2.469-1.021,3.389c-0.967,1.254-2.171,2.355-3.48,3.251
		c1.828-0.21,3.516-1.93,3.516-1.93s-1.197,1.74-3.005,3.486C50.779,65.898,47.697,67.145,47.697,67.145z M27.557,61.612
		c-1.507-0.681-2-0.876-3.59-1.748c-0.912-0.5-1.761-1.091-2.605-1.698c-1.671-1.203-3.432-2.441-4.407-4.314l-0.005-0.014
		l0.044,0.045c-0.143-0.221-0.224-0.422-0.3-0.673c-0.219-0.712-0.329-1.156,0.409-1.671c1.611,2.918,5.216,6.104,7.222,7.355
		c1.089,0.633,2.205,1.23,3.345,1.773c0.301,0.467,0.607,0.928,0.953,1.366l-0.358-0.138L27.557,61.612z M51.328,62.027
		c0,0-0.557-0.787-0.34-1.709c1.354-0.387,2.845-0.865,3.628-2.141c0.237-0.385,0.305-0.824,0.317-1.266
		c-0.035-1.962-2.228-1.649-3.363-0.156c-0.693,0.994-1.215,2.062-1.242,3.293c-0.008,0.285,0.048,0.688,0.169,0.969
		c0.153,0.342,0.388,0.599,0.646,0.862L51.328,62.027z M38.861,61.882c0.255-0.266,0.491-0.521,0.642-0.862
		c0.124-0.28,0.177-0.685,0.169-0.969c-0.026-1.232-0.55-2.3-1.239-3.294c-1.138-1.493-3.33-1.807-3.363,0.157
		c0.011,0.441,0.078,0.881,0.317,1.268c0.782,1.272,2.273,1.75,3.627,2.139c0.215,0.922-0.341,1.709-0.341,1.709L38.861,61.882z
		 M63.029,59.584c0.986-1.732,1.914-3.495,2.734-5.312c0.5-1.109,0.963-2.236,1.555-3.302c0.522-0.939,1.054-1.956,1.918-2.635
		c0.675-0.53,1.197-0.851,2.023-0.974c0.164,0.007,0.391,0.011,0.54,0.039c0.222,0.041,0.455,0.266,0.599,0.418
		c0.43,0.449,0.679,0.856,0.562,1.496c-0.169,0.908-0.753,1.679-1.265,2.418c-1.697,2.4-3.354,4.531-5.454,5.971
		c-1.335,0.87-0.659,0.447-2.028,1.264c-0.841,0.46-0.441,0.25-1.195,0.637L63.029,59.584z M25.788,58.969
		c-1.368-0.816-0.691-0.395-2.027-1.265c-2.102-1.438-3.758-3.571-5.454-5.97c-0.513-0.739-1.096-1.51-1.264-2.418
		c-0.119-0.642,0.132-1.049,0.56-1.498c0.144-0.15,0.378-0.375,0.6-0.416c0.148-0.029,0.374-0.033,0.54-0.04
		c0.827,0.124,1.349,0.444,2.024,0.975c0.859,0.679,1.393,1.694,1.915,2.636c0.594,1.066,1.056,2.191,1.558,3.301
		c0.816,1.816,1.747,3.578,2.732,5.312l0.011,0.021l-0.526-0.27L25.788,58.969z M15.632,56.768
		c-1.059-1.088-1.728-1.914-2.403-3.324c-1.201-2.512-1.775-5.983-1.382-8.754c0.059-0.42,0.154-0.836,0.248-1.248
		c0.565-2.417,2.699-5.079,5.059-5.988c0.703-0.27,1.452-0.363,2.199-0.402c0.25,0.002,0.501-0.003,0.752,0.005
		c0.213,0.009,0.424,0.053,0.636,0.076c0.945,0.114,1.869,0.32,2.768,0.642c3.229,1.154,6.131,3.001,8.779,5.162
		c-3.5-2.802-11.599-6.22-16.604-2.024c-0.95,0.896-1.756,1.884-2.259,3.103c-0.902,2.188-0.805,4.692-0.267,6.958
		c0.072,0.305,0.266,0.936,0.351,1.236c0.266,0.929,0.525,1.862,1.036,2.693c0.801,1.308,1.779,2.486,2.997,3.433l-0.791-0.608
		L15.632,56.768z M61.376,62.034c0.345-0.438,0.651-0.9,0.953-1.366c1.142-0.543,2.254-1.141,3.346-1.773
		c2.005-1.252,5.611-4.438,7.222-7.355c0.736,0.515,0.627,0.959,0.41,1.671c-0.076,0.251-0.158,0.454-0.302,0.673l0.044-0.045
		l-0.005,0.014c-0.974,1.875-2.735,3.111-4.405,4.314c-0.845,0.607-1.693,1.198-2.605,1.698c-1.59,0.872-2.086,1.067-3.592,1.748
		C61.615,61.943,61.973,61.807,61.376,62.034z M72.458,58.333c1.218-0.945,2.194-2.125,2.997-3.433
		c0.51-0.832,0.768-1.765,1.036-2.693c0.085-0.301,0.28-0.932,0.35-1.236c0.539-2.266,0.636-4.771-0.266-6.958
		c-0.503-1.218-1.31-2.206-2.259-3.102c-5.006-4.196-13.105-0.777-16.605,2.023c2.648-2.161,5.551-4.01,8.778-5.162
		c0.899-0.321,1.823-0.527,2.77-0.641c0.212-0.025,0.423-0.069,0.636-0.076c0.25-0.009,0.5-0.003,0.752-0.005
		c0.748,0.038,1.496,0.131,2.197,0.401c2.363,0.91,4.496,3.57,5.059,5.988c0.097,0.413,0.191,0.829,0.25,1.248
		c0.394,2.77-0.18,6.242-1.381,8.754c-0.676,1.41-1.346,2.236-2.407,3.324C72.995,57.941,73.635,57.427,72.458,58.333z
		 M64.381,37.657c-2.011,0.277-3.677-0.296-5.279-1.539c0.847,0.225,1.719,0.283,2.592,0.342c1.479,0.032,2.547-0.141,3.918-0.699
		c2.947-1.363,4.07-5.885,3.58-7.878c-0.354-1.365-0.916-2.332-1.912-3.327c-0.133-0.132-0.289-0.237-0.434-0.356
		c0.205-0.046,0.422-0.034,0.633-0.046c1.633,0.117,2.551,0.952,3.092,2.464c0.367,1.109,2.059,7.063-2.639,9.723
		c-0.883,0.535-1.848,0.882-2.83,1.174L64.381,37.657z M30.9,36.118c-1.602,1.243-3.269,1.816-5.28,1.539l-0.721-0.143
		c-0.985-0.291-1.946-0.639-2.829-1.173c-4.7-2.662-3.007-8.616-2.64-9.725c0.541-1.511,1.461-2.346,3.093-2.463
		c0.211,0.011,0.426-0.001,0.633,0.046c-0.144,0.118-0.303,0.223-0.434,0.356c-0.996,0.995-1.556,1.962-1.911,3.326
		c-0.49,1.994,0.633,6.516,3.58,7.879c1.368,0.559,2.438,0.731,3.919,0.699C29.18,36.401,30.052,36.343,30.9,36.118z M36.054,44.322
		c-0.176-0.683,0.066,0.31-0.159-1.342c-0.232-1.709-0.407-2.716-0.888-4.375c-0.831-2.87-2.118-5.598-3.665-8.147
		c-2.055-3.385-5.037-7.568-9.504-7.347c1.289-1.346,3.022-2.258,4.904-2.306c4.297-0.063,6.323,2.224,10.529,7.324
		c1.933,2.275,4.517,4.531,7.656,4.655L45,32.783l0.071,0.001c3.133-0.103,5.736-2.392,7.658-4.655
		c4.205-5.1,6.232-7.387,10.528-7.324c1.884,0.048,3.616,0.96,4.902,2.306c-4.468-0.221-7.446,3.962-9.5,7.347
		c-1.548,2.551-2.835,5.278-3.665,8.147c-0.48,1.66-0.657,2.666-0.889,4.375c-0.225,1.652,0.015,0.659-0.158,1.342
		c-0.151-1.954,0.764-9.734,2.705-13.182c2.609-4.627,4.759-5.599,4.759-5.599s-1.688-0.353-5.511,3.781c0,0,2.82-6.078,9.584-7.201
		c0,0-4.17-1.472-8.224,3.209c-1.716,1.955-3.481,3.886-5.493,5.548c-1.889,1.556-4.066,3.015-6.579,3.134v-0.009
		c-3.887,0.233-8.398-3.993-12.448-8.673c-4.053-4.682-8.223-3.209-8.223-3.209c6.762,1.123,9.581,7.2,9.581,7.2
		c-3.821-4.134-5.51-3.781-5.51-3.781s2.151,0.972,4.759,5.6C35.287,34.586,36.204,42.368,36.054,44.322"/>
</g>
</svg>
